:SAMPLES-PER-SECOND 30
:FULLY-SPECIFIED
:DEGREES
1270
root  65.6089 37.3079 16.2518 176.249 81.4952 175.527
RightUpLeg  -9.06523 -3.74651 -1.02135
RightLeg  -3.8285 -39.8874 2.18039
RightFoot  -9.01127 -8.95195 151.377
RightToes  -6.98493e-010 0 -3.6325e-017
Spine  19.6407 -0.0281959 -7.4202
Spine1  13.4946 0.646988 -3.47292
HEad  69.7905 -48.2047 -159.184
LeftShoulder1  1.70771 -5.728 -11.3116
LeftArm  -54.2094 -69.4951 8.34475
LeftForeArm  -19.2426 3.54826 0.230803
LeftHand  -0.0366154 8.19363 0.313684
RightShoulder  0.220144 2.46656 -5.46581
RightArm  22.1233 86.5126 80.7237
RightForeArm  -44.9899 -5.10501 3.23396
RightHand  -0.300353 4.30251 -3.88466
LeftUpLeg  -24.4594 7.8 3.07651
LeftLeg  29.3736 -7.56161 -4.20575
LeftFoot  -2.94709 0.00154862 0.222524
LeftToes  7.91257e-010 -1.64976e-010 -3.02228e-011
1271
root  65.4998 37.3619 16.1977 177.533 82.2085 177.189
RightUpLeg  -9.30905 -4.52379 -1.17005
RightLeg  -2.71817 -39.576 2.22966
RightFoot  -8.70394 -10.3433 151.896
RightToes  -6.98493e-010 0 -3.6325e-017
Spine  19.5757 0.212605 -7.14629
Spine1  13.6717 0.97086 -3.79664
HEad  66.1296 -50.708 -157.112
LeftShoulder1  1.7301 -5.95763 -11.0864
LeftArm  -53.8287 -69.1879 7.89123
LeftForeArm  -19.6838 3.23592 0.301098
LeftHand  -0.0414686 8.00309 0.0981196
RightShoulder  0.249279 2.56964 -4.98806
RightArm  25.0994 86.4465 82.3195
RightForeArm  -47.2585 -5.17855 4.20601
RightHand  -0.299084 5.10148 -3.60893
LeftUpLeg  -23.8777 8.57569 3.38689
LeftLeg  28.934 -7.8381 -4.29356
LeftFoot  -2.81792 0.0211454 -0.0564411
LeftToes  7.91257e-010 -1.64976e-010 -3.02228e-011
1272
root  65.3824 37.4878 16.1899 -178.757 83.0036 -178.484
RightUpLeg  -9.9365 -5.21678 -0.880168
RightLeg  0.302277 -39.1981 0.432065
RightFoot  -8.35795 -12.9931 154.85
RightToes  -6.98493e-010 0 -3.6325e-017
Spine  19.7301 0.45634 -6.39298
Spine1  13.4417 1.28281 -4.05645
HEad  61.0637 -52.9571 -154.237
LeftShoulder1  1.7418 -5.87484 -11.406
LeftArm  -52.4804 -68.8724 6.73637
LeftForeArm  -20.1356 2.56886 0.00348085
LeftHand  -0.0448857 8.16311 0.00367893
RightShoulder  0.287488 2.91915 -4.55298
RightArm  22.0015 85.3866 79.1522
RightForeArm  -49.2554 -5.14455 4.4957
RightHand  -0.357096 6.27841 -3.88247
LeftUpLeg  -22.7628 9.12744 4.15914
LeftLeg  27.9463 -7.95321 -4.18876
LeftFoot  -2.43035 0.0499645 -0.454349
LeftToes  7.91257e-010 -1.64976e-010 -3.02228e-011
1273
root  65.2766 37.6614 16.2279 -173.611 83.4671 -172.642
RightUpLeg  -10.8953 -7 -0.660246
RightLeg  4.94668 -33.2667 -2.00008
RightFoot  -8.69535 -12.9891 157.665
RightToes  -6.98493e-010 0 -3.6325e-017
Spine  19.5446 0.601314 -5.23475
Spine1  13.8428 1.50779 -4.19881
HEad  55.8467 -55.0104 -151.343
LeftShoulder1  1.74034 -5.59807 -12.0111
LeftArm  -50.8153 -68.5645 5.35471
LeftForeArm  -21.0031 1.27336 -0.494963
LeftHand  -0.0332446 7.29655 0.320802
RightShoulder  0.32319 3.1795 -4.13971
RightArm  18.0392 84.195 76.4626
RightForeArm  -49.3767 -5.04485 3.94414
RightHand  -0.384238 6.87982 -3.982
LeftUpLeg  -21.2914 9.06127 5.14106
LeftLeg  26.3157 -7.9568 -3.89241
LeftFoot  -1.85049 0.104621 -1.11834
LeftToes  7.91257e-010 -1.64976e-010 -3.02228e-011
1274
root  65.1881 37.8584 16.3421 -168.545 83.1428 -166.799
RightUpLeg  -11.1167 -9.73364 -0.767756
RightLeg  8.4665 -25.4383 -2.78188
RightFoot  -9.08895 -11.0365 157.75
RightToes  -6.98493e-010 0 -3.6325e-017
Spine  19.3678 0.651939 -3.83949
Spine1  14.0174 1.55433 -4.0355
HEad  49.8752 -56.2331 -147.777
LeftShoulder1  1.74223 -5.34723 -12.6361
LeftArm  -48.1386 -68.1438 2.48606
LeftForeArm  -20.285 -0.836518 -0.992149
LeftHand  -0.034645 6.24954 -0.013584
RightShoulder  0.409891 3.32078 -2.79865
RightArm  12.2252 82.021 73.2864
RightForeArm  -48.2801 -4.92107 2.59954
RightHand  -0.374904 7.61611 -3.70257
LeftUpLeg  -19.6625 9.25139 6.20256
LeftLeg  24.3614 -9.03536 -4.10209
LeftFoot  -1.31299 0.202586 -2.22835
LeftToes  7.91257e-010 -1.64976e-010 -3.02228e-011
1275
root  65.1736 37.8745 16.5795 -172.608 82.1532 -169.803
RightUpLeg  -10.755 -9.92906 -1.59643
RightLeg  14.771 -26.9945 -4.88405
RightFoot  -9.38687 -14.734 159.907
RightToes  -6.98493e-010 0 -3.6325e-017
Spine  19.211 0.668557 -3.93619
Spine1  13.9022 1.35975 -3.72919
HEad  43.5793 -56.3837 -143.678
LeftShoulder1  1.75493 -5.10476 -13.4036
LeftArm  -43.9256 -67.1852 -2.41391
LeftForeArm  -19.5934 -3.6031 -1.45334
LeftHand  -0.0360083 6.12938 -0.361879
RightShoulder  0.511318 3.53453 -1.34642
RightArm  4.04488 78.8904 67.2858
RightForeArm  -45.4563 -4.37238 1.19206
RightHand  -0.320098 8.35854 -3.07736
LeftUpLeg  -18.3976 8.83474 6.42829
LeftLeg  23.7069 -9.48649 -4.17301
LeftFoot  -0.657713 0.215499 -2.25359
LeftToes  7.91257e-010 -1.64976e-010 -3.02228e-011
1276
root  65.1952 37.9941 16.822 -174.916 80.7726 -171.479
RightUpLeg  -9.61421 2.8474 -2.5088
RightLeg  4.83747 -9.68303 -21.6257
RightFoot  -9.7063 15.7819 165.533
RightToes  -6.98493e-010 0 -3.6325e-017
Spine  18.485 0.522377 -2.64707
Spine1  13.7837 1.46063 -4.20787
HEad  36.736 -55.8838 -139.436
LeftShoulder1  1.80588 -5.05772 -14.1901
LeftArm  -39.3685 -66.5749 -6.43949
LeftForeArm  -19.1133 -5.97488 -2.71307
LeftHand  -0.0339626 5.75109 -0.607826
RightShoulder  0.628974 3.46399 0.67136
RightArm  -2.38742 73.8008 59.5792
RightForeArm  -41.7007 -0.704458 1.20336
RightHand  -0.0825864 9.13933 -1.05745
LeftUpLeg  -17.0543 8.62999 6.64834
LeftLeg  21.8994 -11.0008 -4.47872
LeftFoot  0.156593 0.301178 -3.00671
LeftToes  7.91257e-010 -1.64976e-010 -3.02228e-011
1277
root  65.2456 37.8965 17.2159 177.874 78.8892 -177.645
RightUpLeg  -9.86486 15.8646 -3.11293
RightLeg  103.065 41.0396 108.463
RightFoot  176.726 37.7552 8.10317
RightToes  -6.98493e-010 0 -3.6325e-017
Spine  17.6322 0.661955 -3.69432
Spine1  14.7378 1.12698 -3.50097
HEad  31.9478 -55.7268 -136.587
LeftShoulder1  1.8026 -4.74892 -15.0013
LeftArm  -34.5187 -65.1197 -11.0707
LeftForeArm  -18.0232 -9.87274 -3.83381
LeftHand  -0.030962 5.44105 -0.565644
RightShoulder  0.736203 3.22019 2.86581
RightArm  -4.85578 69.2279 54.2355
RightForeArm  -40.7612 6.56726 2.45353
RightHand  -0.0573787 10.1391 -0.831987
LeftUpLeg  -16.1467 7.73395 6.15055
LeftLeg  21.7749 -11.9796 -4.81836
LeftFoot  0.168392 0.363294 -3.6153
LeftToes  7.91257e-010 -1.64976e-010 -3.02228e-011
1278
root  65.2657 37.7596 17.713 174.075 76.3667 179.354
RightUpLeg  -9.24899 15.7991 -3.38673
RightLeg  24.751 16.3562 4.09184
RightFoot  -2.65065 44.8189 -162.1
RightToes  -6.98493e-010 0 -3.6325e-017
Spine  17.584 0.607162 -4.11295
Spine1  13.8405 0.778444 -3.32816
HEad  27.861 -54.2604 -133.686
LeftShoulder1  1.81361 -4.62159 -15.5348
LeftArm  -27.4518 -62.8884 -16.5623
LeftForeArm  -18.718 -13.9979 -5.20231
LeftHand  -0.022634 4.40055 -0.145713
RightShoulder  0.824368 2.84811 5.17066
RightArm  -6.28772 64.6008 50.6975
RightForeArm  -39.9666 12.5666 3.40973
RightHand  -0.204044 10.4944 -1.89824
LeftUpLeg  -15.9356 6.37862 5.88664
LeftLeg  21.9519 -12.9225 -5.1715
LeftFoot  0.361636 0.436113 -4.27464
LeftToes  7.91257e-010 -1.64976e-010 -3.02228e-011
1279
root  65.2786 37.5357 18.3049 170.29 73.9949 175.805
RightUpLeg  -8.04843 17.5368 -3.89925
RightLeg  33.3608 8.49003 5.75773
RightFoot  -6.04639 33.9071 -162.332
RightToes  -6.98493e-010 0 -3.6325e-017
Spine  16.9767 0.786506 -4.68635
Spine1  13.2763 0.853104 -3.70658
HEad  25.4765 -52.7826 -131.906
LeftShoulder1  1.7952 -4.14399 -16.7818
LeftArm  -20.6446 -60.5264 -22.0104
LeftForeArm  -18.9033 -19.5111 -5.71234
LeftHand  -0.0215577 4.11766 -0.0870536
RightShoulder  0.900706 2.44118 7.62645
RightArm  -8.86976 59.6402 47.1548
RightForeArm  -38.3989 18.8996 4.96032
RightHand  -0.288667 10.6825 -2.49323
LeftUpLeg  -16.5248 5.48982 5.29565
LeftLeg  22.584 -13.8895 -5.70398
LeftFoot  0.524266 0.502583 -4.87052
LeftToes  7.91257e-010 -1.64976e-010 -3.02228e-011
1280
root  65.2121 37.1212 19.0164 165.775 71.1816 171.968
RightUpLeg  -6.37736 16.6201 -4.51025
RightLeg  36.3696 -7.104 -5.46867
RightFoot  -9.63399 12.1726 -165.046
RightToes  -6.98493e-010 0 -3.6325e-017
Spine  17.1206 1.08991 -6.78937
Spine1  13.1876 0.43183 -3.16429
HEad  24.6992 -51.5374 -131.715
LeftShoulder1  1.7535 -3.72565 -17.6272
LeftArm  -17.0132 -56.7998 -26.1484
LeftForeArm  -16.9291 -25.5784 -6.23823
LeftHand  -0.0220032 3.56066 0.163574
RightShoulder  0.907015 1.88755 9.51535
RightArm  -11.7457 55.5721 44.1571
RightForeArm  -33.9724 25.1905 6.92676
RightHand  -0.0803688 10.7728 -0.993017
LeftUpLeg  -17.4561 4.96743 4.39718
LeftLeg  24.481 -15.6183 -7.03899
LeftFoot  0.178905 0.54717 -5.43601
LeftToes  7.91257e-010 -1.64976e-010 -3.02228e-011
